
mtllib cone.mtl
o SketchUp.001_ID10
v -0.051962 0.030000 0.005000
v -0.060000 0.000000 0.005000
v 0.000000 0.000000 0.170000
v -0.051962 -0.030000 0.005000
v 0.000000 0.000000 0.170000
v -0.030000 0.051962 0.005000
v 0.000000 0.000000 0.170000
v 0.000000 0.000000 0.170000
v -0.030000 -0.051962 0.005000
v 0.000000 0.000000 0.170000
v 0.000000 0.060000 0.005000
v 0.000000 0.000000 0.170000
v 0.000000 -0.060000 0.005000
v 0.000000 0.000000 0.170000
v 0.030000 0.051962 0.005000
v 0.000000 0.000000 0.170000
v 0.030000 -0.051962 0.005000
v 0.000000 0.000000 0.170000
v 0.051962 0.030000 0.005000
v 0.000000 0.000000 0.170000
v 0.051962 -0.030000 0.005000
v 0.000000 0.000000 0.170000
v 0.060000 0.000000 0.005000
v 0.000000 0.000000 0.170000
vn -0.911300 0.244200 0.331400
vn -0.911300 -0.244200 0.331400
vn -0.667100 0.667100 0.331400
vn -0.667100 -0.667100 0.331400
vn -0.244200 0.911300 0.331400
vn -0.244200 -0.911300 0.331400
vn 0.244200 0.911300 0.331400
vn 0.244200 -0.911300 0.331400
vn 0.667100 0.667100 0.331400
vn 0.667100 -0.667100 0.331400
vn 0.911300 0.244200 0.331400
vn 0.911300 -0.244200 0.331400
usemtl material_1
s 1
f 1/0/1 2/0/1 3/0/1
f 2/0/2 4/0/2 5/0/2
f 6/0/3 1/0/3 7/0/3
f 8/0/4 4/0/4 9/0/4
f 10/0/5 11/0/5 6/0/5
f 12/0/6 9/0/6 13/0/6
f 14/0/7 15/0/7 11/0/7
f 16/0/8 13/0/8 17/0/8
f 18/0/9 19/0/9 15/0/9
f 20/0/10 17/0/10 21/0/10
f 19/0/11 22/0/11 23/0/11
f 23/0/12 24/0/12 21/0/12
o SketchUp_ID2
v 0.075000 0.075000 0.000000
v -0.075000 -0.075000 0.000000
v -0.075000 0.075000 0.000000
v 0.075000 -0.075000 0.000000
v -0.075000 0.075000 0.005000
v 0.075000 0.075000 0.000000
v -0.075000 0.075000 0.000000
v 0.075000 0.075000 0.005000
v 0.075000 0.075000 0.000000
v 0.075000 -0.075000 0.005000
v 0.075000 -0.075000 0.000000
v 0.075000 0.075000 0.005000
v 0.075000 -0.075000 0.005000
v -0.075000 -0.075000 0.000000
v 0.075000 -0.075000 0.000000
v -0.075000 -0.075000 0.005000
v -0.075000 0.075000 0.005000
v -0.075000 -0.075000 0.000000
v -0.075000 -0.075000 0.005000
v -0.075000 0.075000 0.000000
v -0.075000 -0.075000 0.005000
v -0.060000 0.000000 0.005000
v -0.075000 0.075000 0.005000
v -0.051962 -0.030000 0.005000
v -0.030000 -0.051962 0.005000
v 0.000000 -0.060000 0.005000
v 0.075000 -0.075000 0.005000
v 0.030000 -0.051962 0.005000
v 0.051962 -0.030000 0.005000
v 0.060000 0.000000 0.005000
v 0.000000 0.060000 0.005000
v 0.075000 0.075000 0.005000
v -0.030000 0.051962 0.005000
v -0.051962 0.030000 0.005000
v 0.030000 0.051962 0.005000
v 0.051962 0.030000 0.005000
vn 0.000000 0.000000 -1.000000
vn 0.000000 1.000000 0.000000
vn 1.000000 0.000000 0.000000
vn 0.000000 -1.000000 0.000000
vn -1.000000 0.000000 0.000000
vn 0.000000 0.000000 1.000000
usemtl material_1
s 1
f 25/0/13 26/0/13 27/0/13
f 26/0/13 25/0/13 28/0/13
f 29/0/14 30/0/14 31/0/14
f 30/0/14 29/0/14 32/0/14
f 33/0/15 34/0/15 35/0/15
f 34/0/15 33/0/15 36/0/15
f 37/0/16 38/0/16 39/0/16
f 38/0/16 37/0/16 40/0/16
f 41/0/17 42/0/17 43/0/17
f 42/0/17 41/0/17 44/0/17
f 45/0/18 46/0/18 47/0/18
f 46/0/18 45/0/18 48/0/18
f 48/0/18 45/0/18 49/0/18
f 49/0/18 45/0/18 50/0/18
f 50/0/18 45/0/18 51/0/18
f 50/0/18 51/0/18 52/0/18
f 52/0/18 51/0/18 53/0/18
f 53/0/18 51/0/18 54/0/18
f 47/0/18 55/0/18 56/0/18
f 55/0/18 47/0/18 57/0/18
f 57/0/18 47/0/18 58/0/18
f 58/0/18 47/0/18 46/0/18
f 56/0/18 55/0/18 59/0/18
f 56/0/18 59/0/18 60/0/18
f 56/0/18 60/0/18 54/0/18
f 56/0/18 54/0/18 51/0/18